Motion_pl10
version=1
nRows=12
nColumns=43
inDegrees=yes
endheader
time	pelvis_tilt	pelvis_list	pelvis_rotation	pelvis_tx	pelvis_ty	pelvis_tz	hip_flexion_r	hip_adduction_r	hip_rotation_r	knee_angle_r	ankle_angle_r	subtalar_angle_r	mtp_angle_r	hip_flexion_l	hip_adduction_l	hip_rotation_l	knee_angle_l	ankle_angle_l	subtalar_angle_l	mtp_angle_l	lumbar_extension	lumbar_bending	lumbar_rotation	neck_flexion	neck_lateral_bending	neck_rotation	arm_flex_r	arm_add_r	arm_rot_r	elbow_flex_r	pro_sup_r	wrist_flex_r	wrist_dev_r	hand_finger_flex_r	arm_flex_l	arm_add_l	arm_rot_l	elbow_flex_l	pro_sup_l	wrist_flex_l	wrist_dev_l	hand_finger_flex_l
      0.00250000	     -1.42678364	    -13.69090609	     86.61002031	     -0.01858686	      1.62590245	      1.70966371	     94.90978620	     -9.15332459	      8.76293845	   -137.11597566	     26.43255783	      9.62004401	      4.84277044	     90.32292260	     -7.29597238	      3.22166798	   -140.14944093	     30.79953310	      8.80054193	      3.02398253	    -57.23217774	     -2.24597176	     -1.17770472	     34.77308119	      3.95640193	      0.30196573	     33.56113603	    -28.80085881	     -3.88160704	     75.56672919	    110.58547759	      4.08581592	     -3.04440605	     -6.71761899	     27.32689930	    -21.80236602	    -10.94422526	     80.16471719	     94.08300496	     -4.09787587	      6.50916884	    -11.28058596
      0.00500000	     -1.44734008	    -13.75895217	     86.57788939	     -0.01870981	      1.62576992	      1.70899217	     94.88168961	     -9.13252770	      8.82584023	   -137.13375361	     26.57539182	      9.62843971	      4.83801113	     90.29629632	     -7.28691805	      3.20419957	   -140.16839959	     30.79345605	      8.74988140	      3.09669016	    -57.14255208	     -2.30645470	     -1.16763605	     35.00399027	      3.98368538	      0.19514876	     34.16487114	    -28.80218199	     -3.59289176	     75.43374777	    110.62646984	      4.02890565	     -3.01837354	     -6.53492414	     28.05934089	    -21.83413071	    -10.62922869	     79.91839561	     94.14652484	     -4.16399946	      6.48562578	    -11.16457344
      0.00750000	     -1.46747968	    -13.79226708	     86.52374211	     -0.01891413	      1.62555671	      1.70829516	     94.85060338	     -9.12328490	      8.89482840	   -137.17970103	     26.66655393	      9.66382618	      4.83108359	     90.24232966	     -7.30519309	      3.14302361	   -140.23615339	     30.82286035	      8.70143934	      3.17111495	    -57.05756007	     -2.36835785	     -1.12021754	     35.11427414	      3.98353006	      0.12179769	     34.78298526	    -28.90077872	     -3.22052055	     75.27455666	    110.64114502	      4.00017964	     -3.01461353	     -6.34496427	     28.81086607	    -21.84601426	    -10.27655147	     79.63325403	     94.21113581	     -4.22616412	      6.46495031	    -11.05115353
      0.01000000	     -1.64953319	    -13.73792550	     86.41467853	     -0.01924309	      1.62526266	      1.70753819	     94.82530497	     -9.13301635	      9.23148160	   -137.29354074	     26.85170862	     10.00033444	      4.32128881	     90.06431160	     -7.30469878	      2.83766836	   -140.30596786	     30.67003653	      8.38571959	      5.15809903	    -56.98798803	     -2.57188444	     -0.94788862	     34.86506135	      3.88153965	     -0.27683013	     35.12972426	    -29.32318092	     -2.49894245	     75.16671652	    109.63558242	      0.92223606	     -2.98083097	     -1.46494067	     29.86652121	    -21.79168844	     -9.15036012	     78.95998369	     94.47884509	     -6.60465240	      5.89448662	     -7.38700046
      0.01250000	     -1.62794674	    -13.80153764	     86.37259322	     -0.01938290	      1.62508553	      1.70684294	     94.80055289	     -9.10306009	      9.24017081	   -137.31998930	     26.88036772	     10.02273253	      4.32119787	     90.04892120	     -7.31434027	      2.86508880	   -140.35772043	     30.68680166	      8.38633519	      5.17208111	    -56.89650928	     -2.60493979	     -0.92155024	     35.07322107	      3.90276765	     -0.23362798	     35.78723602	    -29.30109350	     -2.18656616	     75.02607512	    109.70769690	      1.02457989	     -2.97891544	     -1.42883414	     30.58458620	    -21.81115795	     -8.92773634	     78.76677727	     94.51628358	     -6.54418813	      5.98068246	     -7.37269755
      0.01500000	     -1.60673819	    -13.83635662	     86.32056652	     -0.01959342	      1.62486589	      1.70613535	     94.76284122	     -9.08737153	      9.26258695	   -137.36250345	     26.92266390	     10.06277627	      4.32500303	     90.00994487	     -7.34054321	      2.85702263	   -140.43545064	     30.72032980	      8.37221649	      5.18479516	    -56.80376809	     -2.64687947	     -0.86280225	     35.15878812	      3.92020704	     -0.21706067	     36.47594241	    -29.36558373	     -1.79121859	     74.82611368	    109.74362466	      1.13906346	     -2.98496309	     -1.40108276	     31.33114346	    -21.82366929	     -8.63880354	     78.53856732	     94.55491531	     -6.48276052	      6.05800195	     -7.36764857
      0.01750000	     -1.58579074	    -13.85954169	     86.26918550	     -0.01979524	      1.62464747	      1.70541885	     94.71469520	     -9.06936432	      9.29401089	   -137.40895276	     26.96410082	     10.12674679	      4.33232421	     89.95681086	     -7.36224352	      2.84902762	   -140.51321577	     30.75411241	      8.33977135	      5.19415327	    -56.71134102	     -2.69274545	     -0.79981566	     35.17229036	      3.93278451	     -0.21136523	     37.15888971	    -29.42726387	     -1.38402548	     74.62820353	    109.72275814	      1.23358631	     -3.00872834	     -1.39334851	     32.09643620	    -21.83513232	     -8.33601610	     78.29194056	     94.58888464	     -6.43553796	      6.12067699	     -7.37589242
      0.02000000	     -1.54863737	    -13.68773454	     86.18151306	     -0.02001388	      1.62459867	      1.70462544	     94.46134905	     -9.03198389	      9.34438372	   -137.48596082	     27.05022316	     10.32373909	      4.35646339	     89.69703709	     -7.42689371	      2.81525173	   -140.63204471	     30.78660412	      8.21785392	      5.20802284	    -56.76491590	     -2.76015477	     -0.68533812	     34.80892940	      3.92761430	     -0.21518545	     37.88957251	    -29.62150500	     -0.78121122	     74.32044447	    109.38222797	      1.24259817	     -3.20054097	     -1.48625178	     32.91685239	    -21.88178867	     -7.88693100	     77.96022687	     94.60800171	     -6.46216130	      6.08772139	     -7.44782136
      0.02250000	     -1.54375996	    -13.80035773	     86.16825149	     -0.02025259	      1.62433423	      1.70390334	     94.50200140	     -9.04827559	      9.37508524	   -137.51797619	     27.07237353	     10.37402929	      4.36483408	     89.73132065	     -7.40863947	      2.80891427	   -140.68163452	     30.80399018	      8.20330437	      5.21238452	    -56.61025307	     -2.78550398	     -0.65344484	     35.02215616	      3.95450945	     -0.20741630	     38.53162986	    -29.58044126	     -0.51498373	     74.17543039	    109.32208093	      1.27225741	     -3.17230649	     -1.51424321	     33.67332184	    -21.84422063	     -7.65788299	     77.76774848	     94.62031042	     -6.43484792	      6.13853512	     -7.46525758
      0.02500000	     -1.53264757	    -13.71411953	     86.11225219	     -0.02057922	      1.62417496	      1.70314458	     94.35822919	     -9.05964416	      9.46361657	   -137.58614920	     27.13813104	     10.57230835	      4.40513703	     89.56144044	     -7.42039034	      2.75957063	   -140.78109508	     30.82039310	      8.08036694	      5.22063864	    -56.58123249	     -2.84032108	     -0.55155455	     34.75995382	      3.99373304	     -0.24146184	     39.24143756	    -29.82495318	      0.13379948	     73.93690854	    108.83700496	      1.23625427	     -3.22533458	     -1.70450257	     34.53378494	    -21.90757433	     -7.10810974	     77.42051648	     94.62474525	     -6.47220149	      6.13744815	     -7.57510736
      0.02750000	     -1.53026627	    -13.82647035	     86.10300918	     -0.02083531	      1.62389861	      1.70239879	     94.39565327	     -9.07898518	      9.49410894	   -137.63009316	     27.16107334	     10.61955207	      4.41786786	     89.59852385	     -7.40168970	      2.74383625	   -140.83245929	     30.83508224	      8.07053174	      5.22551332	    -56.42014250	     -2.86478963	     -0.52124503	     34.97976845	      4.02015540	     -0.24017539	     39.87863852	    -29.78215218	      0.41042579	     73.79590620	    108.76414705	      1.26039828	     -3.16937020	     -1.75174329	     35.30395502	    -21.86698287	     -6.86063052	     77.23149577	     94.63964613	     -6.44886455	      6.18911237	     -7.60190358
      0.03000000	     -1.53132802	    -13.73644597	     86.06490048	     -0.02113397	      1.62373597	      1.70162152	     94.25165481	     -9.09615088	      9.59474859	   -137.70790305	     27.22263853	     10.77724844	      4.47090481	     89.42276365	     -7.39772508	      2.69428973	   -140.92965371	     30.84605670	      7.98834929	      5.24157010	    -56.39873181	     -2.92182764	     -0.43140598	     34.72667975	      4.06074150	     -0.29962767	     40.57839258	    -30.03799353	      1.06825905	     73.62357381	    108.32775691	      1.20917492	     -3.12622647	     -1.99590719	     36.17637283	    -21.94552431	     -6.27661886	     76.90852398	     94.66609232	     -6.51299518	      6.18280679	     -7.74836565
